<!-- Generator: Adobe Illustrator 17.0.0, SVG Export Plug-In  -->
<svg version="1.1"
	 xmlns="http://www.w3.org/2000/svg" xmlns:xlink="http://www.w3.org/1999/xlink" xmlns:a="http://ns.adobe.com/AdobeSVGViewerExtensions/3.0/"
	 x="0px" y="0px" width="306.747px" height="352.184px" viewBox="0 0 306.747 352.184" enable-background="new 0 0 306.747 352.184"
	 xml:space="preserve">
<defs>
</defs>
<g>
	<path fill="#FFFFFF" d="M39.244,300.59l-3.909,7.856c-2.119-2.12-5.531-3.18-10.232-3.18c-4.458,0-8.112,1.87-10.962,5.609
		c-2.851,3.74-4.275,8.471-4.275,14.195c0,5.725,1.321,10.269,3.965,13.63c2.643,3.362,6.169,5.043,10.578,5.043
		c5.042,0,8.988-1.804,11.839-5.409l4.421,7.674c-3.873,4.117-9.549,6.175-17.027,6.175s-13.288-2.46-17.429-7.38
		C2.07,339.883,0,333.171,0,324.67c0-7.917,2.296-14.538,6.889-19.859c4.591-5.323,10.469-7.984,17.631-7.984
		C30.657,296.826,35.565,298.082,39.244,300.59z"/>
	<path fill="#FFFFFF" d="M58.551,306.18v12.532h17.685v8.076H58.551v16.041h24.263v8.441H49.051v-53.53h34.164v8.439H58.551z"/>
	<path fill="#FFFFFF" d="M92.327,351.271v-53.53h9.501v45.089h24.189v8.441H92.327z"/>
	<path fill="#FFFFFF" d="M143.898,306.18v12.532h17.685v8.076h-17.685v16.041h24.263v8.441h-33.764v-53.53h34.165v8.439H143.898z"/>
	<path fill="#FFFFFF" d="M187.175,331.574v19.696h-9.5v-53.494c6.334-0.268,10.035-0.401,11.107-0.401
		c8.453,0,14.635,1.297,18.545,3.891c3.91,2.594,5.865,6.644,5.865,12.15c0,12.278-7.234,18.416-21.705,18.416
		C190.415,331.831,188.978,331.746,187.175,331.574z M187.175,305.997v17.139c1.607,0.171,2.875,0.256,3.801,0.256
		c4.336,0,7.502-0.725,9.5-2.175c1.998-1.448,2.998-3.808,2.998-7.071c0-5.554-4.471-8.33-13.412-8.33
		C189.064,305.815,188.101,305.877,187.175,305.997z"/>
	<path fill="#FFFFFF" d="M247.992,351.271l-3.91-10.852H225.74l-3.729,10.852h-10.559l21.338-54.262h4.166l21.521,54.262H247.992z
		 M234.873,313.379l-6.43,19.768h12.861L234.873,313.379z"/>
	<path fill="#FFFFFF" d="M295.033,351.271l-14.287-22.105c-1.438-0.025-3.447-0.111-6.029-0.257v22.362h-9.865v-53.53
		c0.535,0,2.594-0.092,6.174-0.275c3.582-0.183,6.469-0.272,8.66-0.272c13.594,0,20.391,5.262,20.391,15.784
		c0,3.166-0.94,6.054-2.815,8.66c-1.875,2.607-4.238,4.446-7.088,5.518l15.82,24.116H295.033z M274.716,305.997v14.872
		c1.754,0.146,3.094,0.22,4.02,0.22c3.971,0,6.875-0.561,8.715-1.682c1.838-1.12,2.758-3.301,2.758-6.54
		c0-2.63-0.984-4.47-2.959-5.517c-1.973-1.049-5.08-1.571-9.316-1.571C276.91,305.779,275.837,305.853,274.716,305.997z"/>
</g>
<g>
	<path fill-rule="evenodd" clip-rule="evenodd" fill="#F7A600" d="M248.066,217.105c-20.447,20.789-48.861,33.716-80.203,33.716
		c-62.005,0-112.581-50.577-112.581-112.583c0-33.938,15.152-64.452,39.037-85.123c-20.013,20.34-32.392,48.21-32.392,78.878
		c0,62.009,50.575,112.584,112.582,112.584C202.581,244.576,228.31,234.207,248.066,217.105z"/>
	<g>
		<radialGradient id="SVGID_1_" cx="117.0897" cy="107.1796" r="170.3132" gradientUnits="userSpaceOnUse">
			<stop  offset="0" style="stop-color:#008BD2"/>
			<stop  offset="1" style="stop-color:#006293"/>
		</radialGradient>
		<path fill-rule="evenodd" clip-rule="evenodd" fill="url(#SVGID_1_)" d="M178.24,46.969c-54.845,0-99.579,44.732-99.579,99.581
			s44.733,99.582,99.579,99.582c54.852,0,99.584-44.733,99.584-99.582S233.091,46.969,178.24,46.969z M247.927,217.337
			c11.303-14.483,18.051-32.679,18.051-52.403c0-47.04-38.363-85.403-85.402-85.403c-24.859,0-47.293,10.715-62.923,27.763
			c15.652-20.062,40.037-33.001,67.353-33.001c47.041,0,85.406,38.364,85.406,85.405
			C270.412,181.879,261.874,202.128,247.927,217.337z"/>
		<radialGradient id="SVGID_2_" cx="117.0897" cy="107.1796" r="170.3132" gradientUnits="userSpaceOnUse">
			<stop  offset="0" style="stop-color:#008BD2"/>
			<stop  offset="1" style="stop-color:#006293"/>
		</radialGradient>
		<path fill-rule="evenodd" clip-rule="evenodd" fill="url(#SVGID_2_)" d="M178.24,46.969c-54.845,0-99.579,44.732-99.579,99.581
			s44.733,99.582,99.579,99.582c54.852,0,99.584-44.733,99.584-99.582S233.091,46.969,178.24,46.969z M247.927,217.337
			c11.303-14.483,18.051-32.679,18.051-52.403c0-47.04-38.363-85.403-85.402-85.403c-24.859,0-47.293,10.715-62.923,27.763
			c15.652-20.062,40.037-33.001,67.353-33.001c47.041,0,85.406,38.364,85.406,85.405
			C270.412,181.879,261.874,202.128,247.927,217.337z"/>
	</g>
	<path fill-rule="evenodd" clip-rule="evenodd" fill="#FFCC00" d="M163.316,0c1.875,0,3.738,0.047,5.596,0.124
		C96.727,3.075,38.767,62.85,38.767,135.736c0,72.888,57.96,132.66,130.145,135.613c-1.857,0.077-3.721,0.126-5.596,0.126
		c-74.756,0-135.731-60.977-135.731-135.739C27.585,60.978,88.56,0,163.316,0z"/>
	<g>
		<radialGradient id="SVGID_3_" cx="179.3208" cy="46.4794" r="62.2131" gradientUnits="userSpaceOnUse">
			<stop  offset="0" style="stop-color:#A1DAF8"/>
			<stop  offset="1" style="stop-color:#FFFFFF;stop-opacity:0"/>
		</radialGradient>
		<path fill="url(#SVGID_3_)" d="M238.203,108.194C238.205,108.193,237.16,109.562,238.203,108.194L238.203,108.194z"/>
		
			<radialGradient id="SVGID_4_" cx="179.7065" cy="48.2535" r="57.0915" fx="178.9661" fy="48.2534" gradientTransform="matrix(4.489659e-11 1 -1.99 8.934422e-11 275.7309 -131.453)" gradientUnits="userSpaceOnUse">
			<stop  offset="0.0816" style="stop-color:#AFDFF9"/>
			<stop  offset="0.9" style="stop-color:#FFFFFF;stop-opacity:0"/>
		</radialGradient>
		<path fill="url(#SVGID_4_)" d="M180.576,79.53c-24.859,0-47.293,10.715-62.923,27.763c15.652-20.062,40.037-33.001,67.353-33.001
			c22.451,0,42.922,8.744,58.191,22.993c0.543-2.529,0.65-5.177,0.154-8.006c-0.797-4.499-2.982-8.627-5.861-12.138
			c-7.299-8.902-18.445-14.221-29.273-17.428c-13.924-4.124-28.846-5.097-43.242-3.393c-12.826,1.519-25.92,5.226-36.705,12.538
			c-8.397,5.694-15.919,14.47-15.45,25.205c0.543,12.662,11.499,21.805,21.963,27.146c19.246,9.806,42.792,11.551,63.812,7.632
			c14.381-2.681,30.422-8.621,39.609-20.647c0.867-1.301,1.66-2.61,2.367-3.941C225.126,88.983,203.923,79.53,180.576,79.53z"/>
	</g>
</g>
<g>
	<g>
		<radialGradient id="SVGID_5_" cx="305.6733" cy="50.9717" r="1.092" gradientUnits="userSpaceOnUse">
			<stop  offset="0" style="stop-color:#A1DAF8"/>
			<stop  offset="1" style="stop-color:#FFFFFF;stop-opacity:0"/>
		</radialGradient>
		<path fill="url(#SVGID_5_)" d="M305.673,52.082c1.432,0,1.432-2.22,0-2.22C304.242,49.862,304.242,52.082,305.673,52.082
			L305.673,52.082z"/>
	</g>
</g>
</svg>
