<!-- Generator: Adobe Illustrator 17.0.0, SVG Export Plug-In  -->
<svg version="1.1"
	 xmlns="http://www.w3.org/2000/svg" xmlns:xlink="http://www.w3.org/1999/xlink" xmlns:a="http://ns.adobe.com/AdobeSVGViewerExtensions/3.0/"
	 x="0px" y="0px" width="469.208px" height="404.05px" viewBox="0 0 469.208 404.05" enable-background="new 0 0 469.208 404.05"
	 xml:space="preserve">
<defs>
</defs>
<path fill="#FFFFFF" d="M423.994,254.367l-5.112,11.664h20.447l4.968-11.664H423.994z M434.577,320.173l-8.568-21.815l-8.64,21.815
	H434.577z M415.93,273.087h20.519l32.687,77.325h-22.823l-5.616-13.68h-29.591l-5.472,13.68h-22.391L415.93,273.087z
	 M307.646,273.663h19.871l31.679,40.607v-40.607h20.951v76.821h-18.719l-32.903-42.119v42.119h-20.951v-76.821H307.646z
	 M269.991,320.317l-8.568-21.815l-8.64,21.815H269.991z M251.344,273.159h20.519l32.687,77.325h-22.823l-5.616-13.68H246.52
	l-5.472,13.68h-22.391L251.344,273.159z M180.282,310.598c3.672,0,6.48-0.792,8.424-2.448s2.952-3.888,2.952-6.624v-0.216
	c0-3.096-1.008-5.328-3.096-6.84c-2.016-1.512-4.896-2.232-8.424-2.232h-13.896v18.431h14.04V310.598z M144.931,273.735h36.287
	c5.904,0,10.944,0.72,15.047,2.16c4.104,1.44,7.416,3.528,10.008,6.12c4.536,4.392,6.768,10.368,6.768,17.855v0.216
	c0,5.904-1.44,10.8-4.248,14.688c-2.88,3.888-6.696,6.84-11.52,8.856l18.287,26.783H191.01l-15.479-23.255h-0.216h-9.072v23.255
	h-21.311v-76.821V273.735z M107.276,320.389l-8.568-21.815l-8.64,21.815H107.276z M88.629,273.231h20.519l32.687,77.325h-22.823
	l-5.616-13.68H83.805l-5.472,13.68H55.942L88.629,273.231z M31.463,311.965c3.816,0,6.768-0.864,8.928-2.736
	c2.16-1.8,3.24-4.248,3.24-7.344v-0.216c0-3.312-1.08-5.832-3.24-7.56c-2.16-1.728-5.184-2.592-9.072-2.592H21.311v20.375h10.08
	L31.463,311.965z M0.072,273.807h32.903c4.824,0,9.216,0.576,13.176,1.8s7.344,2.952,10.08,5.256
	c2.808,2.304,4.896,5.112,6.408,8.496c1.512,3.384,2.232,7.2,2.232,11.376v0.216c0,4.536-0.792,8.496-2.448,11.952
	c-1.656,3.456-3.96,6.336-6.84,8.64c-2.952,2.376-6.408,4.104-10.512,5.256c-4.032,1.152-8.496,1.728-13.248,1.728H21.311v21.959H0
	v-76.821L0.072,273.807z"/>
<path fill="#FFFFFF" d="M13.68,403.978c-2.016,0-3.888-0.36-5.544-1.008c-1.656-0.72-3.096-1.656-4.248-2.808
	c-1.152-1.224-2.088-2.664-2.736-4.248c-0.648-1.656-0.936-3.384-0.936-5.328v-0.072c0-1.8,0.36-3.528,1.008-5.184
	s1.584-3.096,2.808-4.32c1.224-1.224,2.592-2.232,4.248-2.952s3.456-1.08,5.472-1.08c1.152,0,2.16,0.072,3.096,0.216
	c0.936,0.144,1.8,0.36,2.592,0.72c0.792,0.288,1.584,0.648,2.232,1.08c0.72,0.432,1.368,0.936,2.088,1.512l-2.88,3.456
	c-0.504-0.432-1.008-0.792-1.512-1.152s-1.08-0.648-1.656-0.864c-0.576-0.216-1.224-0.432-1.872-0.576
	c-0.72-0.144-1.44-0.216-2.232-0.216c-1.224,0-2.304,0.216-3.312,0.72c-1.008,0.504-1.944,1.152-2.664,2.016
	c-0.792,0.864-1.368,1.8-1.8,2.952c-0.432,1.152-0.648,2.304-0.648,3.528v0.072c0,1.368,0.216,2.592,0.648,3.744
	c0.432,1.152,1.008,2.16,1.8,2.952c0.792,0.792,1.728,1.44,2.808,1.944s2.304,0.72,3.672,0.72c1.224,0,2.376-0.216,3.528-0.576
	c1.08-0.36,2.016-0.864,2.808-1.44v-4.896h-6.696v-4.032h11.16v11.016c-0.648,0.576-1.368,1.08-2.16,1.584
	c-0.792,0.504-1.656,0.936-2.52,1.296c-0.936,0.36-1.872,0.648-2.952,0.864c-1.08,0.216-2.16,0.288-3.312,0.288L13.68,403.978z
	 M44.638,399.73c1.296,0,2.52-0.216,3.6-0.72c1.08-0.504,2.016-1.152,2.808-2.016c0.792-0.864,1.368-1.8,1.8-2.952
	c0.432-1.152,0.648-2.304,0.648-3.6v-0.072c0-1.296-0.216-2.448-0.648-3.6c-0.432-1.152-1.08-2.088-1.8-2.952
	c-0.792-0.864-1.728-1.512-2.808-2.016c-1.08-0.504-2.304-0.72-3.6-0.72s-2.52,0.216-3.6,0.72c-1.08,0.504-2.016,1.152-2.808,2.016
	c-0.792,0.864-1.368,1.8-1.8,2.952c-0.432,1.152-0.648,2.304-0.648,3.6v0.072c0,1.296,0.216,2.448,0.648,3.6
	c0.432,1.152,1.08,2.088,1.8,2.952c0.792,0.864,1.728,1.512,2.808,2.016C42.119,399.514,43.343,399.73,44.638,399.73z
	 M44.566,403.978c-2.016,0-3.888-0.36-5.544-1.08c-1.656-0.72-3.096-1.656-4.32-2.88c-1.224-1.224-2.16-2.664-2.808-4.248
	c-0.648-1.656-1.008-3.384-1.008-5.184v-0.072c0-1.872,0.36-3.6,1.008-5.184c0.648-1.656,1.584-3.096,2.808-4.32
	c1.224-1.224,2.664-2.232,4.32-2.952s3.528-1.08,5.544-1.08c2.016,0,3.888,0.36,5.544,1.08c1.656,0.72,3.096,1.656,4.32,2.88
	c1.224,1.224,2.16,2.664,2.808,4.248c0.648,1.656,1.008,3.384,1.008,5.184v0.072c0,1.872-0.36,3.6-1.008,5.184
	c-0.648,1.656-1.584,3.096-2.808,4.32c-1.224,1.224-2.664,2.232-4.32,2.952C48.454,403.618,46.582,403.978,44.566,403.978z
	 M63.07,377.339h5.112l7.92,20.087l7.848-20.087h4.968L78.045,403.69h-4.032l-10.872-26.351H63.07z M94.821,377.339h19.367v4.104
	H99.357v6.768h13.104v4.104H99.357v7.056h14.975v4.104H94.749v-26.135H94.821z M132.692,390.299c1.656,0,2.952-0.36,3.888-1.152
	c0.936-0.792,1.44-1.872,1.44-3.168v-0.072c0-1.44-0.504-2.52-1.44-3.24c-0.936-0.72-2.304-1.08-4.032-1.08h-6.696v8.784h6.696
	L132.692,390.299z M121.388,377.339h11.664c1.656,0,3.096,0.216,4.392,0.72c1.296,0.432,2.304,1.08,3.168,1.944
	c0.72,0.72,1.224,1.584,1.584,2.52c0.36,0.936,0.576,2.016,0.576,3.168v0.072c0,1.08-0.144,2.016-0.432,2.88
	c-0.288,0.864-0.72,1.584-1.296,2.304c-0.576,0.648-1.224,1.224-1.944,1.656c-0.792,0.432-1.584,0.792-2.52,1.08l7.056,9.936h-5.4
	l-6.408-9.144h-0.072h-5.688v9.144h-4.608v-26.135L121.388,377.339z M149.899,377.339h4.248l14.04,18.071v-18.071h4.536v26.135
	h-3.816l-14.4-18.575v18.575h-4.536v-26.135H149.899z M193.457,399.73c1.296,0,2.52-0.216,3.6-0.72
	c1.08-0.504,2.016-1.152,2.808-2.016c0.792-0.864,1.368-1.8,1.8-2.952c0.432-1.152,0.648-2.304,0.648-3.6v-0.072
	c0-1.296-0.216-2.448-0.648-3.6c-0.432-1.152-1.08-2.088-1.8-2.952c-0.792-0.864-1.728-1.512-2.808-2.016
	c-1.08-0.504-2.304-0.72-3.6-0.72c-1.296,0-2.52,0.216-3.6,0.72c-1.08,0.504-2.016,1.152-2.808,2.016
	c-0.792,0.864-1.368,1.8-1.8,2.952c-0.432,1.152-0.648,2.304-0.648,3.6v0.072c0,1.296,0.216,2.448,0.648,3.6
	c0.432,1.152,1.08,2.088,1.8,2.952c0.792,0.864,1.728,1.512,2.808,2.016C190.938,399.514,192.162,399.73,193.457,399.73z
	 M193.385,403.978c-2.016,0-3.888-0.36-5.544-1.08c-1.656-0.72-3.096-1.656-4.32-2.88c-1.224-1.224-2.16-2.664-2.808-4.248
	c-0.648-1.656-1.008-3.384-1.008-5.184v-0.072c0-1.872,0.36-3.6,1.008-5.184c0.648-1.656,1.584-3.096,2.808-4.32
	c1.224-1.224,2.664-2.232,4.32-2.952s3.528-1.08,5.544-1.08s3.888,0.36,5.544,1.08s3.096,1.656,4.32,2.88
	c1.224,1.224,2.16,2.664,2.808,4.248c0.648,1.656,1.008,3.384,1.008,5.184v0.072c0,1.872-0.36,3.6-1.008,5.184
	c-0.648,1.656-1.584,3.096-2.808,4.32c-1.224,1.224-2.664,2.232-4.32,2.952C197.273,403.618,195.401,403.978,193.385,403.978z
	 M236.584,399.371c1.368,0,2.592-0.216,3.744-0.648s2.088-1.08,2.88-1.8c0.792-0.792,1.368-1.728,1.8-2.808
	c0.432-1.08,0.648-2.232,0.648-3.528v-0.072c0-1.296-0.216-2.448-0.648-3.528c-0.432-1.08-1.08-2.016-1.8-2.808
	c-0.792-0.792-1.728-1.368-2.88-1.872c-1.152-0.432-2.376-0.648-3.744-0.648H231.4v17.783h5.184V399.371z M226.864,377.411h9.72
	c2.016,0,3.888,0.36,5.616,1.008c1.728,0.648,3.168,1.584,4.392,2.736c1.224,1.152,2.16,2.52,2.88,4.104
	c0.648,1.584,1.008,3.312,1.008,5.112v0.072c0,1.872-0.36,3.528-1.008,5.184c-0.648,1.584-1.656,2.952-2.88,4.176
	c-1.224,1.152-2.736,2.088-4.392,2.736c-1.728,0.648-3.6,1.008-5.616,1.008h-9.72V377.411z M270.135,399.802
	c1.296,0,2.52-0.216,3.6-0.72c1.08-0.504,2.016-1.152,2.808-2.016c0.792-0.864,1.368-1.8,1.8-2.952
	c0.432-1.152,0.648-2.304,0.648-3.6v-0.072c0-1.296-0.216-2.448-0.648-3.6c-0.432-1.152-1.08-2.088-1.8-2.952
	c-0.792-0.864-1.728-1.512-2.808-2.016c-1.08-0.504-2.304-0.72-3.6-0.72c-1.296,0-2.52,0.216-3.6,0.72
	c-1.08,0.504-2.016,1.152-2.808,2.016c-0.792,0.864-1.368,1.8-1.8,2.952c-0.432,1.152-0.648,2.304-0.648,3.6v0.072
	c0,1.296,0.216,2.448,0.648,3.6c0.432,1.152,1.08,2.088,1.8,2.952c0.792,0.864,1.728,1.512,2.808,2.016
	S268.839,399.802,270.135,399.802z M270.063,404.05c-2.016,0-3.888-0.36-5.544-1.08s-3.096-1.656-4.32-2.88
	c-1.224-1.224-2.16-2.664-2.808-4.248c-0.648-1.656-1.008-3.384-1.008-5.184v-0.072c0-1.872,0.36-3.6,1.008-5.184
	c0.648-1.656,1.584-3.096,2.808-4.32c1.224-1.224,2.664-2.232,4.32-2.952s3.528-1.08,5.544-1.08s3.888,0.36,5.544,1.08
	s3.096,1.656,4.32,2.88c1.224,1.224,2.16,2.664,2.808,4.248c0.648,1.656,1.008,3.384,1.008,5.184v0.072
	c0,1.872-0.36,3.6-1.008,5.184c-0.648,1.656-1.584,3.096-2.808,4.32c-1.224,1.224-2.664,2.232-4.32,2.952
	S272.079,404.05,270.063,404.05z M303.542,377.411h19.367v4.104h-14.831v6.768h13.104v4.104h-13.104v7.056h14.975v4.104H303.47
	v-26.135H303.542z M339.253,403.906c-2.016,0-3.96-0.36-5.76-1.008c-1.872-0.72-3.528-1.728-5.112-3.168l2.736-3.312
	c1.296,1.08,2.52,1.944,3.816,2.52c1.296,0.576,2.736,0.864,4.392,0.864c1.44,0,2.52-0.288,3.384-0.864
	c0.864-0.576,1.224-1.368,1.224-2.376v-0.072c0-0.504-0.072-0.864-0.216-1.224c-0.144-0.36-0.432-0.72-0.864-1.008
	c-0.432-0.36-1.008-0.648-1.8-0.864c-0.792-0.288-1.728-0.576-2.952-0.792c-1.368-0.288-2.664-0.72-3.744-1.08
	c-1.08-0.432-2.016-0.936-2.736-1.512c-0.72-0.576-1.296-1.296-1.656-2.16c-0.36-0.864-0.576-1.872-0.576-3.096v-0.072
	c0-1.152,0.216-2.16,0.648-3.096c0.432-0.936,1.08-1.728,1.872-2.376c0.792-0.648,1.728-1.152,2.808-1.584
	c1.08-0.36,2.304-0.576,3.6-0.576c1.944,0,3.672,0.288,5.184,0.864c1.512,0.576,2.952,1.368,4.32,2.448l-2.448,3.456
	c-1.224-0.864-2.376-1.512-3.528-2.016c-1.152-0.432-2.376-0.72-3.528-0.72c-1.368,0-2.376,0.288-3.168,0.864
	c-0.72,0.576-1.152,1.368-1.152,2.232v0.072c0,0.504,0.072,0.936,0.288,1.296c0.144,0.36,0.504,0.72,0.936,1.08
	c0.432,0.288,1.08,0.576,1.872,0.864c0.792,0.288,1.872,0.576,3.096,0.864c1.368,0.36,2.592,0.72,3.672,1.152
	c1.08,0.432,1.944,0.936,2.664,1.584c0.72,0.576,1.224,1.296,1.584,2.16c0.36,0.792,0.576,1.728,0.576,2.808v0.072
	c0,1.224-0.216,2.304-0.72,3.312c-0.432,1.008-1.08,1.8-1.944,2.448c-0.792,0.648-1.8,1.152-2.952,1.512
	c-1.152,0.36-2.376,0.504-3.744,0.504H339.253z M361.932,381.659h-8.28v-4.248h21.239v4.248h-8.28v21.887h-4.608v-21.887H361.932z
	 M397.067,393.179l-4.536-10.44l-4.464,10.44H397.067z M390.515,377.195h4.248l11.52,26.351h-4.824l-2.664-6.336h-12.384
	l-2.664,6.336h-4.68l11.52-26.351H390.515z M421.978,399.371c1.368,0,2.592-0.216,3.744-0.648s2.088-1.08,2.88-1.8
	c0.792-0.792,1.368-1.728,1.8-2.808s0.648-2.232,0.648-3.528v-0.072c0-1.296-0.216-2.448-0.648-3.528
	c-0.432-1.08-1.08-2.016-1.8-2.808c-0.792-0.792-1.728-1.368-2.88-1.872c-1.152-0.432-2.376-0.648-3.744-0.648h-5.184v17.783h5.184
	V399.371z M412.258,377.411h9.72c2.016,0,3.888,0.36,5.616,1.008c1.728,0.648,3.168,1.584,4.392,2.736
	c1.224,1.152,2.16,2.52,2.88,4.104c0.648,1.584,1.008,3.312,1.008,5.112v0.072c0,1.872-0.36,3.528-1.008,5.184
	c-0.648,1.584-1.656,2.952-2.88,4.176c-1.224,1.152-2.736,2.088-4.392,2.736c-1.728,0.648-3.6,1.008-5.616,1.008h-9.72V377.411z
	 M455.529,399.802c1.296,0,2.52-0.216,3.6-0.72c1.08-0.504,2.016-1.152,2.808-2.016c0.792-0.864,1.368-1.8,1.8-2.952
	c0.432-1.152,0.648-2.304,0.648-3.6v-0.072c0-1.296-0.216-2.448-0.648-3.6c-0.432-1.152-1.08-2.088-1.8-2.952
	c-0.792-0.864-1.728-1.512-2.808-2.016c-1.08-0.504-2.304-0.72-3.6-0.72c-1.296,0-2.52,0.216-3.6,0.72
	c-1.08,0.504-2.016,1.152-2.808,2.016c-0.792,0.864-1.368,1.8-1.8,2.952c-0.432,1.152-0.648,2.304-0.648,3.6v0.072
	c0,1.296,0.216,2.448,0.648,3.6c0.432,1.152,1.08,2.088,1.8,2.952c0.792,0.864,1.728,1.512,2.808,2.016
	S454.233,399.802,455.529,399.802z M455.457,404.05c-2.016,0-3.888-0.36-5.544-1.08s-3.096-1.656-4.32-2.88
	c-1.224-1.224-2.16-2.664-2.808-4.248c-0.648-1.656-1.008-3.384-1.008-5.184v-0.072c0-1.872,0.36-3.6,1.008-5.184
	c0.648-1.656,1.584-3.096,2.808-4.32c1.224-1.224,2.664-2.232,4.32-2.952s3.528-1.08,5.544-1.08s3.888,0.36,5.544,1.08
	s3.096,1.656,4.32,2.88c1.224,1.224,2.16,2.664,2.808,4.248c0.648,1.656,1.008,3.384,1.008,5.184v0.072
	c0,1.872-0.36,3.6-1.008,5.184c-0.648,1.656-1.584,3.096-2.808,4.32c-1.224,1.224-2.664,2.232-4.32,2.952
	S457.473,404.05,455.457,404.05z"/>
<linearGradient id="SVGID_1_" gradientUnits="userSpaceOnUse" x1="1580.2135" y1="-3617.7773" x2="6856.9028" y2="-5091.5874" gradientTransform="matrix(0.072 0 0 -0.072 -68.7646 -189.611)">
	<stop  offset="0" style="stop-color:#848688"/>
	<stop  offset="0.0588" style="stop-color:#BDBFC1"/>
	<stop  offset="0.1216" style="stop-color:#D2D3D5"/>
	<stop  offset="0.1882" style="stop-color:#FEFEFE"/>
	<stop  offset="0.3608" style="stop-color:#FEFEFE"/>
	<stop  offset="0.502" style="stop-color:#BDBFC1"/>
	<stop  offset="0.6392" style="stop-color:#FEFEFE"/>
	<stop  offset="0.7882" style="stop-color:#FEFEFE"/>
	<stop  offset="0.8784" style="stop-color:#BDBFC1"/>
	<stop  offset="1" style="stop-color:#848688"/>
</linearGradient>
<path fill="url(#SVGID_1_)" d="M56.662,21.239L0.144,226.432c38.375-17.063,77.037-23.975,116.42-20.159l0,0
	c32.039,3.096,61.054,11.808,89.853,20.159l0,0c28.727,8.352,57.814,16.991,89.853,20.159l0,0
	c39.311,3.816,78.045-3.024,116.42-20.159l0,0l56.518-205.193c-38.375,17.063-77.109,23.975-116.42,20.159l0,0
	c-32.039-3.096-61.054-11.808-89.853-20.159l0,0c-28.799-8.28-57.814-16.991-89.853-20.159l0,0
	c-7.056-0.72-14.112-1.008-21.167-1.008C119.876,0.072,88.125,7.2,56.662,21.239L56.662,21.239z"/>
<linearGradient id="SVGID_2_" gradientUnits="userSpaceOnUse" x1="3137.0107" y1="-2872.8987" x2="7386.0513" y2="-3940.6487" gradientTransform="matrix(0.072 0 0 -0.072 -68.7646 -189.611)">
	<stop  offset="0" style="stop-color:#007744"/>
	<stop  offset="0.3686" style="stop-color:#007744"/>
	<stop  offset="0.4588" style="stop-color:#038747"/>
	<stop  offset="0.549" style="stop-color:#25984A"/>
	<stop  offset="0.7686" style="stop-color:#21B354"/>
	<stop  offset="0.9098" style="stop-color:#037A42"/>
	<stop  offset="1" style="stop-color:#00482D"/>
</linearGradient>
<path fill="url(#SVGID_2_)" d="M139.243,0.144L139.243,0.144c56.878,22.031,95.829,60.694,139.387,93.741l0,0
	c39.023,29.519,87.189,64.294,155.011,55.942l0,0l35.423-128.588c-60.334,26.855-115.988,23.975-170.562,9.936l0,0
	C249.328,18.575,203.033,0,146.875,0l0,0h-0.216C144.211,0,141.763,0.072,139.243,0.144z"/>
<linearGradient id="SVGID_3_" gradientUnits="userSpaceOnUse" x1="1055.1971" y1="-4760.0088" x2="5283.3174" y2="-5892.9292" gradientTransform="matrix(0.072 0 0 -0.072 -68.7646 -189.611)">
	<stop  offset="0" style="stop-color:#00482D"/>
	<stop  offset="0.0902" style="stop-color:#037A42"/>
	<stop  offset="0.2314" style="stop-color:#21B354"/>
	<stop  offset="0.451" style="stop-color:#25984A"/>
	<stop  offset="0.5412" style="stop-color:#038747"/>
	<stop  offset="0.6314" style="stop-color:#007744"/>
	<stop  offset="1" style="stop-color:#007744"/>
</linearGradient>
<path fill="url(#SVGID_3_)" d="M35.567,97.773L0.144,226.36c60.334-26.855,115.988-23.975,170.562-9.936l0,0
	c51.406,13.176,99.645,32.831,159.259,31.031l0,0c-58.678-22.751-98.421-63.07-143.707-96.909l0,0
	c-34.055-25.487-75.237-53.998-130.46-53.998c-6.552,0-13.32,0.432-20.303,1.296l0,0L35.567,97.773z"/>
<linearGradient id="SVGID_4_" gradientUnits="userSpaceOnUse" x1="3542.4651" y1="-4173.1143" x2="4901.0552" y2="-4537.144" gradientTransform="matrix(0.072 0 0 -0.072 -68.7646 -189.611)">
	<stop  offset="0" style="stop-color:#0F62AC"/>
	<stop  offset="0.2" style="stop-color:#155A9E"/>
	<stop  offset="0.3412" style="stop-color:#1A5493"/>
	<stop  offset="0.502" style="stop-color:#1E4679"/>
	<stop  offset="0.8" style="stop-color:#155A9E"/>
	<stop  offset="1" style="stop-color:#0F62AC"/>
</linearGradient>
<path fill="url(#SVGID_4_)" d="M188.994,111.38c-5.76,21.455,11.232,42.047,35.495,49.174l0,0
	c22.895,6.696,50.182-3.816,55.726-24.335l0,0c5.832-21.383-11.232-42.047-35.423-49.174l0,0c-4.68-1.368-9.504-2.016-14.328-2.016
	l0,0C211.673,85.029,193.457,95.037,188.994,111.38z"/>
</svg>
