<!-- Generator: Adobe Illustrator 17.0.0, SVG Export Plug-In  -->
<svg version="1.1"
	 xmlns="http://www.w3.org/2000/svg" xmlns:xlink="http://www.w3.org/1999/xlink" xmlns:a="http://ns.adobe.com/AdobeSVGViewerExtensions/3.0/"
	 x="0px" y="0px" width="44.5px" height="36.5px" viewBox="0 0 44.5 36.5" enable-background="new 0 0 44.5 36.5"
	 xml:space="preserve">
<defs>
</defs>
<g>
	<defs>
		<rect id="SVGID_1_" width="44.5" height="36.5"/>
	</defs>
	<clipPath id="SVGID_2_">
		<use xlink:href="#SVGID_1_"  overflow="visible"/>
	</clipPath>
	<g clip-path="url(#SVGID_2_)">
		<defs>
			<rect id="SVGID_3_" x="0.2" y="0.2" width="44" height="36"/>
		</defs>
		<clipPath id="SVGID_4_">
			<use xlink:href="#SVGID_3_"  overflow="visible"/>
		</clipPath>
		<g clip-path="url(#SVGID_4_)">
			<defs>
				<rect id="SVGID_5_" x="0.2" y="0.2" width="44" height="36"/>
			</defs>
			<clipPath id="SVGID_6_">
				<use xlink:href="#SVGID_5_"  overflow="visible"/>
			</clipPath>
			<path clip-path="url(#SVGID_6_)" fill="#FFFFFF" d="M44.2,12.2c0,3.6-1.6,6.8-4.1,9c2.5,1.4,4.1,4,4.1,7c0,4.4-3.6,8-8,8h-28
				c-4.4,0-8-3.6-8-8c0-3.8,2.6-6.9,6.2-7.8c0.9-5.8,5.8-10.2,11.8-10.2c0.7,0,1.5,0.1,2.1,0.2c0.9-5.8,5.8-10.2,11.9-10.2
				C38.9,0.2,44.2,5.6,44.2,12.2 M38.2,20.2c2.4-1.8,4-4.7,4-8c0-5.5-4.5-10-10-10c-5.1,0-9.3,3.8-9.9,8.7c2.5,0.9,4.6,2.6,6,4.8
				c1.1-0.9,2.4-1.5,4-1.5C35.6,14.2,38.2,16.9,38.2,20.2 M42.2,28.2c0-2.7-1.9-5.1-4.5-5.8c-0.9-0.2-1.5-1.1-1.5-2l0-0.1
				c0-2.2-1.8-4-4-4c-1,0-1.9,0.4-2.6,1c-0.4,0.3-0.8,0.5-1.3,0.5c0,0-0.2,0-0.3,0c-0.6-0.1-2.1-1.4-2.4-1.9c-1.9-2.9-4-3.6-7.4-3.6
				c-4.9,0-9.2,3.7-9.9,8.5c-0.1,0.8-0.7,1.5-1.5,1.6c-2.7,0.6-4.6,3-4.6,5.8c0,3.3,2.7,6,6,6h28C39.6,34.2,42.2,31.6,42.2,28.2"/>
			<path clip-path="url(#SVGID_6_)" fill="#F7C16C" d="M42.2,12.2c0,3.3-1.6,6.2-4,8c0-3.3-2.7-6-6-6c-1.5,0-2.9,0.6-4,1.5
				c-1.4-2.2-3.5-3.9-6-4.8c0.6-4.9,4.8-8.7,9.9-8.7C37.8,2.2,42.2,6.7,42.2,12.2"/>
			<path clip-path="url(#SVGID_6_)" fill="#D9D9D9" d="M37.7,22.5c2.7,0.7,4.5,3.1,4.5,5.8c0,3.3-2.7,6-6,6h-28c-3.3,0-6-2.7-6-6
				c0-2.8,1.9-5.2,4.6-5.8c0.8-0.2,1.4-0.8,1.5-1.6c0.7-4.9,5-8.5,9.9-8.5c3.4,0,5.5,0.7,7.4,3.6c0.3,0.5,1.8,1.8,2.4,1.9
				c0.1,0,0.3,0,0.3,0c0.5,0,1-0.2,1.3-0.5c0.7-0.6,1.7-1,2.6-1c2.2,0,4,1.8,4,4l0,0.1C36.2,21.4,36.8,22.2,37.7,22.5"/>
		</g>
	</g>
</g>
</svg>
