<!-- Generator: Adobe Illustrator 17.0.0, SVG Export Plug-In  -->
<svg version="1.1"
	 xmlns="http://www.w3.org/2000/svg" xmlns:xlink="http://www.w3.org/1999/xlink" xmlns:a="http://ns.adobe.com/AdobeSVGViewerExtensions/3.0/"
	 x="0px" y="0px" width="215.474px" height="176.141px" viewBox="0 0 215.474 176.141" enable-background="new 0 0 215.474 176.141"
	 xml:space="preserve">
<defs>
</defs>
<path fill="#2AACE3" d="M215.474,176.141V88.07H172.58c0-15.593,3.293-26.838,9.886-33.715c6.587-6.88,17.593-10.323,33.008-10.323
	L194.028,0c-11.175,0-20.777,2.008-28.82,6.021c-8.043,4.014-14.409,9.173-19.102,15.479c-4.69,6.31-8.377,14.569-11.057,24.77
	c-2.681,10.209-4.414,20.186-5.195,29.934c-0.786,9.748-1.172,21.386-1.172,34.915c0,6.881,0.167,17.606,0.501,32.167
	c0.336,14.568,0.504,25.517,0.504,32.855H215.474z M86.793,176.141V88.07H43.9c0-15.593,3.292-26.838,9.885-33.715
	c6.586-6.88,17.593-10.323,33.007-10.323L65.346,0C54.173,0,44.57,2.008,36.527,6.021c-8.043,4.014-14.41,9.173-19.101,15.479
	c-4.691,6.31-8.378,14.569-11.059,24.77c-2.68,10.209-4.414,20.186-5.194,29.934C0.389,85.951,0,97.59,0,111.119
	c0,6.881,0.168,17.606,0.504,32.167c0.335,14.568,0.503,25.517,0.503,32.855H86.793z"/>
</svg>
