<!-- Generator: Adobe Illustrator 17.0.0, SVG Export Plug-In  -->
<svg version="1.1"
	 xmlns="http://www.w3.org/2000/svg" xmlns:xlink="http://www.w3.org/1999/xlink" xmlns:a="http://ns.adobe.com/AdobeSVGViewerExtensions/3.0/"
	 x="0px" y="0px" width="400px" height="464px" viewBox="0 0 400 464" enable-background="new 0 0 400 464" xml:space="preserve">
<defs>
</defs>
<path fill="#00AEEF" d="M196,0c9.242,2.447,17.323,6.592,22.88,14.835c0.667,0.989,2.895,1.274,4.405,1.289
	c10.331,0.108,20.664,0.019,30.996,0.07c10.241,0.05,17.576,6.751,17.514,15.893c-0.062,9.153-7.364,15.679-17.688,15.721
	c-10.332,0.042-20.667-0.114-30.994,0.129c-1.79,0.042-3.694,1.43-5.266,2.578c-1.308,0.954-1.96,2.942-3.329,3.656
	c-7.005,3.656-7.269,9.811-6.75,16.505c0.28,3.621,0.05,7.281,0.05,11.077c19.076,4.248,34.412,13.867,46.726,28.515
	c1.1,1.309,3.756,1.82,5.695,1.834c19.164,0.132,38.329,0.062,57.493,0.085c38.07,0.045,66.033,27.908,66.078,65.861
	c0.031,25.656,0.006,51.311,0.006,77.368c-31.776,0-63.334,0-95.512,0c0-15.583,0-31.3,0-47.574c-10.719,0-20.834-0.15-30.935,0.16
	c-1.529,0.047-3.212,2.04-4.453,3.458c-27.454,31.366-71.9,37.595-105.587,14.365c-6.099-4.206-11.047-10.05-16.767-14.853
	c-1.818-1.527-4.403-2.992-6.655-3.019c-19.649-0.234-39.302-0.135-59.34-0.135c0-31.809,0-63.367,0-95.637c1.682,0,3.442,0,5.203,0
	c17.831,0,35.663-0.054,53.494,0.05c3.189,0.019,5.477-0.647,7.689-3.322c11.749-14.209,26.91-23.021,45.216-27.162
	c0-6.792,0.08-13.435-0.08-20.071c-0.026-1.09-0.916-2.333-1.732-3.198c-2.845-3.014-5.712-6.03-8.827-8.752
	c-1.193-1.042-3.067-1.8-4.645-1.825c-10.33-0.16-20.663-0.051-30.995-0.093c-10.325-0.042-17.627-6.569-17.688-15.722
	c-0.061-9.142,7.274-15.841,17.516-15.892c10.165-0.051,20.336,0.147,30.493-0.144c2.083-0.06,4.817-1.261,6.055-2.862
	C171.877,5.931,179.486,2.296,188,0C190.667,0,193.333,0,196,0z"/>
<path fill="#00AEEF" d="M333,464c-8.946-1.889-17.703-4.103-25.182-9.896c-16.715-12.948-23.82-33.346-16.868-53.279
	c3.79-10.866,9.063-21.392,14.95-31.31c9.449-15.922,19.962-31.213,30.341-47.259c2.436,4.072,4.801,8.13,7.264,12.127
	c10.78,17.495,22.078,34.694,32.209,52.556c6.376,11.242,9.583,23.783,7.143,36.994c-3.805,20.598-19.31,35.671-40.028,39.198
	c-1.289,0.219-2.554,0.577-3.829,0.87C337,464,335,464,333,464z"/>
<path fill="#00AEEF" d="M0,80c7.301,0.297,14.731-0.164,21.878,1.048c15.041,2.55,25.764,15.307,25.863,30.509
	c0.211,32.295,0.242,64.593-0.007,96.887c-0.133,17.221-14.055,30.844-31.265,31.347C10.982,239.95,5.49,239.935,0,240
	C0,186.667,0,133.333,0,80z"/>
<path fill="#00AEEF" d="M400,291c-3.753,10.022-11.165,13.115-21.529,12.964c-28.806-0.42-57.623-0.146-86.435-0.146
	c-1.332,0-2.667,0.044-3.997-0.018c-9.007-0.418-16.003-7.521-15.835-16.052c0.165-8.408,7.006-15.316,15.838-15.507
	c9.988-0.216,19.984-0.058,29.977-0.059c20.152-0.002,40.312,0.345,60.452-0.143c10.374-0.252,17.769,2.953,21.528,12.961
	C400,287,400,289,400,291z"/>
</svg>
