<!-- Generator: Adobe Illustrator 17.0.0, SVG Export Plug-In  -->
<svg version="1.1"
	 xmlns="http://www.w3.org/2000/svg" xmlns:xlink="http://www.w3.org/1999/xlink" xmlns:a="http://ns.adobe.com/AdobeSVGViewerExtensions/3.0/"
	 x="0px" y="0px" width="200px" height="153.674px" viewBox="0 0 200 153.674" enable-background="new 0 0 200 153.674"
	 xml:space="preserve">
<defs>
</defs>
<g id="Layer_1_copy">
	<path fill="#2AACE3" d="M0,98.891c10.682-0.359,20.987-1.791,30.455-7.535c15.315-9.291,30.901-18.135,46.362-27.186
		c0.666-0.39,1.224-0.962,1.212-0.953c-7.716-3.247-15.568-6.405-23.269-9.897c-1.865-0.846-3.487-2.596-4.776-4.272
		c-2.861-3.72-2.428-7.218,1.562-9.736c3.733-2.357,7.897-4.032,12.367-6.252c-7.697,0.801-14.935,1.781-22.206,2.248
		c-7.289,0.468-14.627,0.812-21.912,0.498c-7.208-0.311-13.27-5.712-15.198-12.413c-1.436-4.992,0.64-9.239,5.698-10.312
		c4.114-0.872,8.415-0.866,12.598-1.246C20.69,1.772,24.313-1.699,35.265,0.758c27.744,6.223,55.47,12.526,83.187,18.869
		c3.575,0.818,6.178,0.586,8.986-2.547c6.346-7.08,11.939-7.206,18.013,0.016c8.431,10.024,14.441,21.313,14.654,34.997
		c0.036,2.316,1.169,5.067,2.704,6.822c4.654,5.321,5.278,9.184,1.603,15.25c-4.329,7.145-2.581,17.773,3.704,23.036
		c4.975,4.166,10.132,8.162,14.728,12.719c4.896,4.853,10.702,6.106,17.157,5.971c0,0.667,0,1.333,0,2
		c-7.756,1.517-14.528,0.394-20.423-5.692c-4.362-4.503-9.691-8.069-15.247-12.586c0,3.998,0,7.345,0,10.691
		c-0.31,0.022-0.62,0.044-0.931,0.066c-0.157-0.91-0.403-1.814-0.456-2.73c-0.437-7.562-3.319-13.592-10.156-17.544
		c-8.195-4.738-12.94-11.952-14.405-21.329c-0.146-0.933-0.654-1.811-1.024-2.703c-0.032-0.078-0.284-0.065-0.875-0.181
		c-0.529,7.22-2.624,13.953,2.279,21.141c8.032,11.776,15.043,24.279,21.989,36.752c2.903,5.214,6.534,8.989,12.009,11.152
		c1.141,0.451,2.137,1.271,2.909,2.454c-5.628-1.326-11.726-0.983-15.369-7.185c-7.234-12.314-14.409-24.712-22.516-36.448
		c-5.956-8.621-9.196-17.449-7.746-27.838c0.497-3.565-0.611-6.277-3.965-7.633c-1.482-0.6-3.382-0.984-4.871-0.603
		c-5.588,1.43-11.085,3.216-17.45,5.117c0.883,6.896,1.788,14.238,2.772,21.57c1.059,7.889,2.214,15.765,3.257,23.656
		c0.1,0.76-0.213,1.611-0.466,2.376c-3.735,11.3-7.212,22.698-11.38,33.837c-1.695,4.53-5.577,7.728-10.487,9.444
		c11.574-11.81,12.647-27.845,17.037-42.344c1.543-5.096-0.676-11.417-1.518-17.129c-1.52-10.308-3.297-20.577-5.132-31.884
		c-3.006,0.878-5.767,1.234-8.093,2.434C71.02,74.414,52.257,84.015,33.778,94.13c-6.633,3.631-13.469,5.294-20.796,5.633
		c-4.32,0.2-8.654,0.096-12.982,0.129C0,99.558,0,99.225,0,98.891z M148.889,62.437c-0.573-0.304-1.146-0.608-1.718-0.912
		c-1.032,1.708-3.03,3.47-2.939,5.116c0.563,10.154,5.985,17.259,15.823,22.488c-1.24-4.326-1.152-9.52-3.471-11.038
		C150.566,74.153,148.93,68.93,148.889,62.437z"/>
</g>
</svg>
